<?xml version="1.0" encoding="UTF-8"?>
<svg version="1.1" xmlns="http://www.w3.org/2000/svg" width="433" height="81">
<path d="M0 0 C142.89 0 285.78 0 433 0 C433 26.73 433 53.46 433 81 C290.11 81 147.22 81 0 81 C0 54.27 0 27.54 0 0 Z " fill="#FCFCFC" transform="translate(0,0)"/>
<path d="M0 0 C0.33 5.28 0.66 10.56 1 16 C2.32 15.01 3.64 14.02 5 13 C9.96508478 12.34423409 13.35291198 13.08439961 17.48828125 15.7421875 C21.20678826 18.83613907 21.91317486 22.23097735 22.4375 26.875 C22.21488023 31.53220569 20.83103705 35.2911833 18 39 C14.51336985 42.06378352 11.36448573 43.81631923 6.75 44.4375 C4 44 4 44 2.125 42.94921875 C-0.46654826 41.79159701 -1.96581069 41.9655604 -4.75 42.375 C-5.54921875 42.48585937 -6.3484375 42.59671875 -7.171875 42.7109375 C-7.77515625 42.80632813 -8.3784375 42.90171875 -9 43 C-8.98952637 41.95021973 -8.97905273 40.90043945 -8.96826172 39.81884766 C-8.93211547 35.93134967 -8.90911922 32.04386659 -8.89013672 28.15625 C-8.88006683 26.47230534 -8.86641012 24.78837821 -8.84912109 23.10449219 C-8.82491574 20.68680499 -8.81352704 18.26934857 -8.8046875 15.8515625 C-8.79436493 15.0963028 -8.78404236 14.34104309 -8.77340698 13.56289673 C-8.77300682 11.7070602 -8.87777284 9.8518072 -9 8 C-9.66 7.34 -10.32 6.68 -11 6 C-10.9375 4 -10.9375 4 -10 2 C-6.34353977 -0.0313668 -4.34868351 0 0 0 Z " fill="#0B0B0B" transform="translate(410,17)"/>
<path d="M0 0 C0.33 5.28 0.66 10.56 1 16 C2.32 15.01 3.64 14.02 5 13 C9.96508478 12.34423409 13.35291198 13.08439961 17.48828125 15.7421875 C21.20678826 18.83613907 21.91317486 22.23097735 22.4375 26.875 C22.21488023 31.53220569 20.83103705 35.2911833 18 39 C14.51336985 42.06378352 11.36448573 43.81631923 6.75 44.4375 C4 44 4 44 2.125 42.94921875 C-0.46654826 41.79159701 -1.96581069 41.9655604 -4.75 42.375 C-5.54921875 42.48585937 -6.3484375 42.59671875 -7.171875 42.7109375 C-7.77515625 42.80632813 -8.3784375 42.90171875 -9 43 C-8.98952637 41.95021973 -8.97905273 40.90043945 -8.96826172 39.81884766 C-8.93211547 35.93134967 -8.90911922 32.04386659 -8.89013672 28.15625 C-8.88006683 26.47230534 -8.86641012 24.78837821 -8.84912109 23.10449219 C-8.82491574 20.68680499 -8.81352704 18.26934857 -8.8046875 15.8515625 C-8.79436493 15.0963028 -8.78404236 14.34104309 -8.77340698 13.56289673 C-8.77300682 11.7070602 -8.87777284 9.8518072 -9 8 C-9.66 7.34 -10.32 6.68 -11 6 C-10.9375 4 -10.9375 4 -10 2 C-6.34353977 -0.0313668 -4.34868351 0 0 0 Z " fill="#0B0B0B" transform="translate(340,17)"/>
<path d="M0 0 C0.33 4.95 0.66 9.9 1 15 C2.32 14.34 3.64 13.68 5 13 C9.28261351 12.52415405 11.47440024 12.72232465 15.3125 14.75 C19.2227716 18.02371576 19.88470047 19.80302444 20.37890625 24.93359375 C20.44899295 26.43450713 20.50992376 27.93587126 20.5625 29.4375 C20.62296807 30.93633614 20.68668903 32.43504512 20.75390625 33.93359375 C20.77783447 34.59415771 20.8017627 35.25472168 20.82641602 35.93530273 C21.02640555 38.31408124 21.53183735 40.65918674 22 43 C17.71 43 13.42 43 9 43 C9.33 41.68 9.66 40.36 10 39 C10.21280729 35.96061118 10.18509387 32.92115754 10.1875 29.875 C10.20586914 28.63943359 10.20586914 28.63943359 10.22460938 27.37890625 C10.22983265 25.25129286 10.1226232 23.12408323 10 21 C8.17084359 18.76154985 8.17084359 18.76154985 5.5 18.6875 C4.675 18.790625 3.85 18.89375 3 19 C0.43838907 22.84241639 0.74158822 25.99245125 0.8125 30.4375 C0.8134668 31.5831543 0.8134668 31.5831543 0.81445312 32.75195312 C0.84351416 36.46207891 1.08581242 39.34324966 2 43 C-2.29 43 -6.58 43 -11 43 C-11 39 -11 39 -10 38 C-9.89971554 35.75570945 -9.86918581 33.50824786 -9.8671875 31.26171875 C-9.86575241 30.24595512 -9.86575241 30.24595512 -9.86428833 29.20967102 C-9.86360643 27.77299914 -9.8654614 26.3363242 -9.86962891 24.8996582 C-9.87495236 22.70712274 -9.8696972 20.51479446 -9.86328125 18.32226562 C-9.86394252 16.92708288 -9.86522468 15.53190027 -9.8671875 14.13671875 C-9.86831543 12.86530029 -9.86944336 11.59388184 -9.87060547 10.28393555 C-9.97492307 7.63643344 -10.20701114 5.50614403 -11 3 C-6.75755532 0.00533317 -5.65814459 0 0 0 Z " fill="#101010" transform="translate(269,17)"/>
<path d="M0 0 C0.33 4.95 0.66 9.9 1 15 C2.32 14.34 3.64 13.68 5 13 C9.28261351 12.52415405 11.47440024 12.72232465 15.3125 14.75 C19.2227716 18.02371576 19.88470047 19.80302444 20.37890625 24.93359375 C20.44899295 26.43450713 20.50992376 27.93587126 20.5625 29.4375 C20.62296807 30.93633614 20.68668903 32.43504512 20.75390625 33.93359375 C20.77783447 34.59415771 20.8017627 35.25472168 20.82641602 35.93530273 C21.02640555 38.31408124 21.53183735 40.65918674 22 43 C17.71 43 13.42 43 9 43 C9.33 41.68 9.66 40.36 10 39 C10.21280729 35.96061118 10.18509387 32.92115754 10.1875 29.875 C10.20586914 28.63943359 10.20586914 28.63943359 10.22460938 27.37890625 C10.22983265 25.25129286 10.1226232 23.12408323 10 21 C8.17084359 18.76154985 8.17084359 18.76154985 5.5 18.6875 C4.675 18.790625 3.85 18.89375 3 19 C0.43838907 22.84241639 0.74158822 25.99245125 0.8125 30.4375 C0.8134668 31.5831543 0.8134668 31.5831543 0.81445312 32.75195312 C0.84351416 36.46207891 1.08581242 39.34324966 2 43 C-2.29 43 -6.58 43 -11 43 C-11 39 -11 39 -10 38 C-9.89971554 35.75570945 -9.86918581 33.50824786 -9.8671875 31.26171875 C-9.86575241 30.24595512 -9.86575241 30.24595512 -9.86428833 29.20967102 C-9.86360643 27.77299914 -9.8654614 26.3363242 -9.86962891 24.8996582 C-9.87495236 22.70712274 -9.8696972 20.51479446 -9.86328125 18.32226562 C-9.86394252 16.92708288 -9.86522468 15.53190027 -9.8671875 14.13671875 C-9.86831543 12.86530029 -9.86944336 11.59388184 -9.87060547 10.28393555 C-9.97492307 7.63643344 -10.20701114 5.50614403 -11 3 C-6.75755532 0.00533317 -5.65814459 0 0 0 Z " fill="#101010" transform="translate(124,17)"/>
<path d="M0 0 C0.83595703 0.01353516 1.67191406 0.02707031 2.53320312 0.04101562 C4.58491498 0.07618783 6.63629275 0.12998952 8.6875 0.1875 C10.32769775 4.74647484 10.88197287 8.32567832 10.6875 13.1875 C7.16558373 12.92661731 6.47474732 11.94435408 4.0625 9.1875 C3.27875 8.1975 2.495 7.2075 1.6875 6.1875 C-1.29462913 4.69643543 -4.02859658 5.06808533 -7.3125 5.1875 C-8.58428716 6.28310101 -8.58428716 6.28310101 -8.9375 8.875 C-8.6551436 12.1835556 -8.6551436 12.1835556 -6.62109375 13.7421875 C-2.03826937 16.81865743 2.81882846 19.42591331 7.7421875 21.9140625 C10.0325748 23.41339234 11.26064912 24.85785766 12.6875 27.1875 C13.23250097 32.18334223 12.78688694 35.20257393 9.6875 39.1875 C5.97434114 42.43651401 2.89235983 43.31619337 -1.98046875 43.28515625 C-2.87314453 43.28193359 -3.76582031 43.27871094 -4.68554688 43.27539062 C-6.07870117 43.26282227 -6.07870117 43.26282227 -7.5 43.25 C-8.91055664 43.24323242 -8.91055664 43.24323242 -10.34960938 43.23632812 C-12.67063712 43.22454626 -14.99153644 43.20809558 -17.3125 43.1875 C-18.69476016 40.42297967 -18.40775387 38.1413637 -18.375 35.0625 C-18.36597656 33.96679688 -18.35695313 32.87109375 -18.34765625 31.7421875 C-18.33605469 30.89914063 -18.32445312 30.05609375 -18.3125 29.1875 C-14.99782105 30.72156629 -13.27305229 32.05061633 -11.3125 35.1875 C-11.3125 35.8475 -11.3125 36.5075 -11.3125 37.1875 C-8.33369115 38.18043628 -6.29648802 38.32156411 -3.1875 38.3125 C-2.29804688 38.31507812 -1.40859375 38.31765625 -0.4921875 38.3203125 C1.66541088 38.43051985 1.66541088 38.43051985 2.6875 37.1875 C3.43994501 34.3599011 3.43994501 34.3599011 2.6875 31.1875 C0.30987859 29.03662723 -2.48770548 27.67471124 -5.3125 26.1875 C-7.09161324 25.20230622 -8.86246629 24.20205685 -10.625 23.1875 C-11.44613281 22.73375 -12.26726563 22.28 -13.11328125 21.8125 C-15.71760366 19.88816941 -16.88433008 18.07547652 -18.3125 15.1875 C-18.89746307 11.25989081 -18.49535914 9.53290059 -16.625 6 C-11.69234638 0.00082668 -7.32528745 -0.22548241 0 0 Z " fill="#0D0D0D" transform="translate(22.3125,16.8125)"/>
<path d="M0 0 C0.74056641 0.00902344 1.48113281 0.01804687 2.24414062 0.02734375 C4.05873467 0.05075787 5.87316071 0.08662385 7.6875 0.125 C9.32769775 4.68397484 9.88197287 8.26317832 9.6875 13.125 C6.70857051 11.78805125 4.688402 10.28579577 2.375 8 C-0.47496517 5.47011731 -1.17319398 5.1407281 -5.1875 4.6875 C-8.17404933 4.78580315 -8.17404933 4.78580315 -9.3125 6.125 C-10.06494501 8.9525989 -10.06494501 8.9525989 -9.3125 12.125 C-6.93454555 14.27617405 -4.13569133 15.63410121 -1.3125 17.125 C0.46556648 18.13318202 2.23640839 19.15420623 4 20.1875 C5.23169922 20.88552734 5.23169922 20.88552734 6.48828125 21.59765625 C8.85628459 23.24221985 10.20444936 24.65948679 11.6875 27.125 C12.51853559 33.56552581 12.51853559 33.56552581 10.73828125 36.90625 C8.10881429 40.29054817 5.73882227 41.96132233 1.6875 43.125 C-1.58832235 43.35728625 -4.84315547 43.3136301 -8.125 43.25 C-9.00865234 43.24097656 -9.89230469 43.23195312 -10.80273438 43.22265625 C-12.97277359 43.19919637 -15.14267247 43.16332865 -17.3125 43.125 C-19.09044195 39.81519803 -19.53695057 37.65412179 -19.4375 33.875 C-19.41945312 32.98296875 -19.40140625 32.0909375 -19.3828125 31.171875 C-19.35960937 30.49640625 -19.33640625 29.8209375 -19.3125 29.125 C-18.3225 29.125 -17.3325 29.125 -16.3125 29.125 C-14.94886792 31.10446592 -13.61831356 33.1069245 -12.3125 35.125 C-10.30644746 37.35394727 -9.07891859 38.05213626 -6.09375 38.3359375 C-3.80559673 38.37214246 -1.58859305 38.36507472 0.6875 38.125 C1.95928716 37.02939899 1.95928716 37.02939899 2.3125 34.4375 C2.03321154 31.12042985 2.03321154 31.12042985 -0.0390625 29.5703125 C-2.41724453 27.99303026 -4.83634064 26.54323369 -7.3125 25.125 C-8.77475715 24.23558586 -10.23341911 23.34021936 -11.6875 22.4375 C-12.31398437 22.06238281 -12.94046875 21.68726562 -13.5859375 21.30078125 C-18.08655858 18.23587866 -18.08655858 18.23587866 -18.78125 14.8203125 C-18.8655879 7.88352054 -18.8655879 7.88352054 -16.125 4.125 C-10.80782108 0.34389499 -6.42635687 -0.1493166 0 0 Z " fill="#0C0C0C" transform="translate(240.3125,16.875)"/>
<path d="M0 0 C0.33 5.28 0.66 10.56 1 16 C2.65 15.01 4.3 14.02 6 13 C11.00039033 12.46424389 13.99560116 12.91089232 18 16 C20.01527077 19.02290616 20.25518118 19.71662734 20.34375 23.125 C20.37339844 23.91390625 20.40304688 24.7028125 20.43359375 25.515625 C20.47786458 27.171875 20.52213542 28.828125 20.56640625 30.484375 C20.59605469 31.27328125 20.62570313 32.0621875 20.65625 32.875 C20.68428711 33.95394531 20.68428711 33.95394531 20.71289062 35.0546875 C20.90594788 37.32179666 20.90594788 37.32179666 23 40 C23 40.99 23 41.98 23 43 C18.71 43 14.42 43 10 43 C10 39 10 39 11 38 C11.12685806 35.36253244 11.18520617 32.76290834 11.1875 30.125 C11.20586914 29.02478516 11.20586914 29.02478516 11.22460938 27.90234375 C11.23509566 24.06436486 11.17768617 22.26652926 9 19 C6.54290625 18.41649495 6.54290625 18.41649495 4 19 C1.48699926 21.42923405 1.01772475 22.8366655 0.63671875 26.34765625 C0.65347656 27.57355469 0.67023437 28.79945312 0.6875 30.0625 C0.69136719 31.29097656 0.69523437 32.51945312 0.69921875 33.78515625 C0.75746778 37.15054665 0.75746778 37.15054665 3 40 C3 40.99 3 41.98 3 43 C-1.62 43 -6.24 43 -11 43 C-10 39 -10 39 -9 37 C-8.78855483 32.75332817 -8.81420396 28.50280971 -8.81469727 24.25146484 C-8.8125156 22.140093 -8.79436897 20.02924779 -8.77539062 17.91796875 C-8.77245558 16.57291845 -8.77047153 15.22786567 -8.76953125 13.8828125 C-8.76542236 12.65965332 -8.76131348 11.43649414 -8.75708008 10.17626953 C-8.98640913 7.17770578 -9.4214427 5.51427383 -11 3 C-6.79759598 0.65447218 -4.98887899 0 0 0 Z " fill="#060606" transform="translate(51,17)"/>
<path d="M0 0 C3.06347802 1.73319946 5.40154014 3.80308029 7 7 C7.23274209 9.87910588 7.41972757 12.74146495 7.5625 15.625 C7.60568359 16.42679688 7.64886719 17.22859375 7.69335938 18.0546875 C7.79951457 20.0362511 7.90026855 22.01810271 8 24 C8.99 24.33 9.98 24.66 11 25 C10.625 26.9375 10.625 26.9375 10 29 C7.2201184 30.3899408 5.0813674 30.18488204 2 30 C-0.375 29 -0.375 29 -2 28 C-2.99 28.66 -3.98 29.32 -5 30 C-9.31502847 30.69467951 -13.98835464 31.18257813 -17.8671875 28.90234375 C-20.42007344 26.19801543 -20.99491037 24.09670304 -21.1875 20.4375 C-20.04081947 17.11816162 -19.00263166 15.00660169 -16.1640625 12.8671875 C-11.4009666 10.95851008 -6.03021214 11.66415498 -1 12 C-2.18531105 9.43850818 -2.18531105 9.43850818 -4 7 C-6.13331014 6.36058952 -6.13331014 6.36058952 -8.4375 6.625 C-9.19933594 6.65851562 -9.96117187 6.69203125 -10.74609375 6.7265625 C-12.90134811 6.98803183 -14.91024563 7.41924822 -17 8 C-16.9375 6.25 -16.9375 6.25 -16 4 C-10.95901869 0.21926402 -6.29114361 -1.35870434 0 0 Z " fill="#0E0E0E" transform="translate(385,30)"/>
<path d="M0 0 C3.06347802 1.73319946 5.40154014 3.80308029 7 7 C7.23274209 9.87910588 7.41972757 12.74146495 7.5625 15.625 C7.60568359 16.42679688 7.64886719 17.22859375 7.69335938 18.0546875 C7.79951457 20.0362511 7.90026855 22.01810271 8 24 C8.99 24.33 9.98 24.66 11 25 C10.625 26.9375 10.625 26.9375 10 29 C7.2201184 30.3899408 5.0813674 30.18488204 2 30 C-0.375 29 -0.375 29 -2 28 C-2.99 28.66 -3.98 29.32 -5 30 C-9.31502847 30.69467951 -13.98835464 31.18257813 -17.8671875 28.90234375 C-20.42007344 26.19801543 -20.99491037 24.09670304 -21.1875 20.4375 C-20.04081947 17.11816162 -19.00263166 15.00660169 -16.1640625 12.8671875 C-11.4009666 10.95851008 -6.03021214 11.66415498 -1 12 C-2.18531105 9.43850818 -2.18531105 9.43850818 -4 7 C-6.13331014 6.36058952 -6.13331014 6.36058952 -8.4375 6.625 C-9.19933594 6.65851562 -9.96117187 6.69203125 -10.74609375 6.7265625 C-12.90134811 6.98803183 -14.91024563 7.41924822 -17 8 C-16.9375 6.25 -16.9375 6.25 -16 4 C-10.95901869 0.21926402 -6.29114361 -1.35870434 0 0 Z " fill="#0E0E0E" transform="translate(315,30)"/>
<path d="M0 0 C2.90184638 1.84662951 4.0778535 2.77729512 5.75 5.75 C6.25173177 8.65959958 6.35195267 11.55228357 6.4375 14.5 C6.48874023 15.68916016 6.48874023 15.68916016 6.54101562 16.90234375 C6.62319104 18.85107504 6.68828045 20.80051362 6.75 22.75 C7.41 23.08 8.07 23.41 8.75 23.75 C7.875 27.625 7.875 27.625 6.75 28.75 C2.80163095 29.0132246 0.14620731 28.83997373 -3.25 26.75 C-4.24 27.41 -5.23 28.07 -6.25 28.75 C-10.54220439 29.44100504 -15.26397787 29.97803074 -19.08203125 27.6171875 C-21.25814115 25.22158524 -22.22317893 22.85728428 -23 19.75 C-22.05120009 15.95480037 -20.71103391 14.28623351 -17.671875 11.875 C-12.82090249 9.62164503 -7.46711533 10.32635455 -2.25 10.75 C-3.43531105 8.18850818 -3.43531105 8.18850818 -5.25 5.75 C-7.38331014 5.11058952 -7.38331014 5.11058952 -9.6875 5.375 C-10.44933594 5.40851562 -11.21117188 5.44203125 -11.99609375 5.4765625 C-14.15134811 5.73803183 -16.16024563 6.16924822 -18.25 6.75 C-18.1875 5 -18.1875 5 -17.25 2.75 C-11.45719612 -1.4208188 -6.93539314 -2.6674589 0 0 Z " fill="#0D0D0D" transform="translate(99.25,31.25)"/>
<path d="M0 0 C1.625 0.8125 1.625 0.8125 2.625 2.8125 C3.305625 2.3175 3.98625 1.8225 4.6875 1.3125 C8.36640375 -0.56608915 10.5341225 -0.68988846 14.625 -0.1875 C17.90234715 1.48209194 20.02102358 2.66911016 21.7578125 5.95703125 C22.85335408 9.56442266 23.0460487 13.07266556 23.1875 16.8125 C23.38048401 21.26345039 23.74584082 25.4167041 24.625 29.8125 C20.335 29.8125 16.045 29.8125 11.625 29.8125 C11.955 28.1625 12.285 26.5125 12.625 24.8125 C12.82559498 21.91752667 12.81003915 19.02634408 12.8125 16.125 C12.83086914 14.96774414 12.83086914 14.96774414 12.84960938 13.78710938 C12.85483104 11.79417293 12.7476341 9.80166662 12.625 7.8125 C10.79713728 5.60392762 10.79713728 5.60392762 8.1875 5.375 C5.45115616 5.54530699 5.45115616 5.54530699 3.984375 7.92578125 C2.38168105 11.32920318 2.25651509 13.6908175 2.3125 17.4375 C2.31636719 18.56414063 2.32023438 19.69078125 2.32421875 20.8515625 C2.41058379 23.99762722 2.41058379 23.99762722 4.625 26.8125 C4.625 27.8025 4.625 28.7925 4.625 29.8125 C0.005 29.8125 -4.615 29.8125 -9.375 29.8125 C-8.375 25.8125 -8.375 25.8125 -7.375 24.8125 C-7.24836909 21.98833618 -7.18979452 19.19955207 -7.1875 16.375 C-7.17525391 15.58544922 -7.16300781 14.79589844 -7.15039062 13.98242188 C-7.14512721 11.92442565 -7.25293715 9.86687991 -7.375 7.8125 C-8.035 7.1525 -8.695 6.4925 -9.375 5.8125 C-9.375 4.8225 -9.375 3.8325 -9.375 2.8125 C-3.02780289 -0.23903707 -3.02780289 -0.23903707 0 0 Z " fill="#0E0E0E" transform="translate(178.375,30.1875)"/>
<path d="M0 0 C0.01981934 0.7113208 0.03963867 1.4226416 0.06005859 2.15551758 C0.15524867 5.37488816 0.26495229 8.5936045 0.375 11.8125 C0.4059375 12.93205078 0.436875 14.05160156 0.46875 15.20507812 C0.50742188 16.27822266 0.54609375 17.35136719 0.5859375 18.45703125 C0.6173584 19.44678955 0.6487793 20.43654785 0.68115234 21.45629883 C0.83773433 24.24075094 0.83773433 24.24075094 3 27 C3 27.99 3 28.98 3 30 C-1.62 30 -6.24 30 -11 30 C-10 26 -10 26 -9 25 C-8.87284478 22.21737057 -8.81478685 19.4705927 -8.8125 16.6875 C-8.80025391 15.91470703 -8.78800781 15.14191406 -8.77539062 14.34570312 C-8.74078285 8.8945231 -8.74078285 8.8945231 -11 4 C-4.39130435 0 -4.39130435 0 0 0 Z " fill="#060606" transform="translate(162,30)"/>
<path d="M0 0 C6.47071277 0.48835568 6.47071277 0.48835568 8.875 2.8125 C11.18907046 7.31208145 11.71752411 11.96736561 11 17 C9.3125 20 9.3125 20 7 22 C4.5 22.5625 4.5 22.5625 2 22 C-0.24432982 20.12972515 -1.69443202 18.61113596 -3 16 C-3.1481544 14.04550156 -3.22124849 12.0848947 -3.25 10.125 C-3.27578125 9.07570313 -3.3015625 8.02640625 -3.328125 6.9453125 C-2.96595818 3.69443414 -2.18132146 2.37649233 0 0 Z " fill="#F5F5F5" transform="translate(413,35)"/>
<path d="M0 0 C6.47071277 0.48835568 6.47071277 0.48835568 8.875 2.8125 C11.18907046 7.31208145 11.71752411 11.96736561 11 17 C9.3125 20 9.3125 20 7 22 C4.5 22.5625 4.5 22.5625 2 22 C-0.24432982 20.12972515 -1.69443202 18.61113596 -3 16 C-3.1481544 14.04550156 -3.22124849 12.0848947 -3.25 10.125 C-3.27578125 9.07570313 -3.3015625 8.02640625 -3.328125 6.9453125 C-2.96595818 3.69443414 -2.18132146 2.37649233 0 0 Z " fill="#F5F5F5" transform="translate(343,35)"/>
<path d="M0 0 C1 1 1 1 1.3125 4.375 C1 8 1 8 -0.625 9.9375 C-3.62103352 11.27783078 -5.75109093 11.35314229 -9 11 C-11 9 -11 9 -11.3125 6.0625 C-11 3 -11 3 -10 1.125 C-6.70573233 -0.72802556 -3.73497211 -0.24096594 0 0 Z " fill="#F6F6F6" transform="translate(96,45)"/>
<path d="M0 0 C1 1 1 1 1.3125 4.375 C1 8 1 8 -0.5625 10 C-3.96372991 11.39537637 -6.4655107 10.74768043 -10 10 C-11.31690141 3.65492958 -11.31690141 3.65492958 -10.0625 1.0625 C-6.70293277 -0.66818615 -3.74536126 -0.24163621 0 0 Z " fill="#F8F8F8" transform="translate(383,45)"/>
<path d="M0 0 C1 1 1 1 1.3125 4.375 C1 8 1 8 -0.5625 10 C-3.96372991 11.39537637 -6.4655107 10.74768043 -10 10 C-11.31690141 3.65492958 -11.31690141 3.65492958 -10.0625 1.0625 C-6.70293277 -0.66818615 -3.74536126 -0.24163621 0 0 Z " fill="#F8F8F8" transform="translate(313,45)"/>
<path d="M0 0 C0.25 2.8125 0.25 2.8125 0 6 C-1.6875 7.9375 -1.6875 7.9375 -4 9 C-6.75 8.6875 -6.75 8.6875 -9 8 C-9.25 5.1875 -9.25 5.1875 -9 2 C-6.09797328 -1.3319566 -4.08536588 -1.24830624 0 0 Z " fill="#141414" transform="translate(162,18)"/>
<path d="M0 0 C0.66 0.33 1.32 0.66 2 1 C1.25 2.9375 1.25 2.9375 0 5 C-2.125 5.75 -2.125 5.75 -4 6 C-3.6875 4.125 -3.6875 4.125 -3 2 C-2.01 1.34 -1.02 0.68 0 0 Z " fill="#2C2C2C" transform="translate(372,32)"/>
<path d="M0 0 C0.66 0.33 1.32 0.66 2 1 C1.25 2.9375 1.25 2.9375 0 5 C-2.125 5.75 -2.125 5.75 -4 6 C-3.6875 4.125 -3.6875 4.125 -3 2 C-2.01 1.34 -1.02 0.68 0 0 Z " fill="#2C2C2C" transform="translate(302,32)"/>
</svg>
