<?xml version="1.0" encoding="UTF-8"?>
<svg version="1.1" xmlns="http://www.w3.org/2000/svg" width="2000" height="211">
<path d="M0 0 C13.11126176 13.72921057 16.90625 28.36936833 16.90625 46.99609375 C5.35625 46.99609375 -6.19375 46.99609375 -18.09375 46.99609375 C-19.08375 42.37609375 -20.07375 37.75609375 -21.09375 32.99609375 C-26.92867986 22.99335685 -36.09736374 18.016228 -47.09375 14.99609375 C-53.32659131 13.81075491 -59.52131385 13.77754866 -65.84375 13.74609375 C-66.8646875 13.72546875 -67.885625 13.70484375 -68.9375 13.68359375 C-80.18686941 13.62649035 -91.15561518 16.09067803 -99.96875 23.37109375 C-103.61919866 27.88047151 -104.534458 32.19419373 -104.3359375 37.984375 C-103.72610898 43.04988606 -101.72097713 46.70983659 -98.03125 50.12109375 C-89.66671379 56.54295025 -80.32215984 59.32041193 -70.21875 61.87109375 C-68.90265929 62.21305341 -67.58682685 62.55600844 -66.27124023 62.89990234 C-59.67393172 64.61541531 -53.05984384 66.25523149 -46.43359375 67.85546875 C-22.08742752 73.7455922 -22.08742752 73.7455922 -11.09375 78.99609375 C-10.09730469 79.46660156 -9.10085938 79.93710938 -8.07421875 80.421875 C4.04917521 86.57478767 13.22083623 95.57553564 17.57421875 108.66796875 C19.11451205 114.09947607 19.40592237 119.24844199 19.34375 124.87109375 C19.33239014 126.31681763 19.33239014 126.31681763 19.32080078 127.79174805 C19.03341889 140.23202754 15.34143317 150.31597281 6.6484375 159.33984375 C-9.96202093 174.96096453 -32.63481046 181.30735294 -55.09375 181.99609375 C-56.22554687 182.03605469 -57.35734375 182.07601562 -58.5234375 182.1171875 C-86.18216089 182.61422587 -112.51700737 176.64991871 -133.28125 157.37109375 C-145.70731036 144.48993883 -148.82694135 130.7314148 -150.09375 112.99609375 C-137.88375 112.99609375 -125.67375 112.99609375 -113.09375 112.99609375 C-112.10375 116.62609375 -111.11375 120.25609375 -110.09375 123.99609375 C-104.18636881 134.43704655 -96.5749903 141.21517867 -85.09375 144.99609375 C-67.40103839 149.62591999 -47.6144574 150.36113867 -31.15234375 141.38671875 C-26.90138127 138.51510083 -24.08230128 134.72213121 -22.09375 129.99609375 C-21.15467082 123.63012545 -21.51522 118.06324494 -25.35546875 112.7734375 C-28.74743108 109.3052513 -32.74145342 107.06699042 -37.09375 104.99609375 C-37.69670898 104.70774658 -38.29966797 104.41939941 -38.92089844 104.12231445 C-49.028024 99.68446538 -60.07648746 97.60286731 -70.76269531 95.00415039 C-80.98129494 92.50880646 -91.06020087 89.84346961 -101 86.3828125 C-101.80452606 86.10354416 -102.60905212 85.82427582 -103.43795776 85.5365448 C-120.09739387 79.55573583 -133.3460627 70.07591371 -141.0859375 53.92578125 C-146.11258208 41.33523339 -144.62449749 26.67806537 -140.09375 14.25390625 C-133.5900292 -0.24397136 -120.52770419 -9.4315486 -106.09375 -15.00390625 C-71.94608219 -27.14529925 -27.82054475 -25.59718154 0 0 Z " fill="#000000" transform="translate(1108.09375,24.00390625)"/>
<path d="M0 0 C12.82375487 13.50302279 15.46056169 27.8459253 16.6875 46.25 C4.8075 46.25 -7.0725 46.25 -19.3125 46.25 C-20.3025 40.31 -20.3025 40.31 -21.3125 34.25 C-25.50453001 25.14317619 -32.28866008 19.49346154 -41.54296875 16.046875 C-58.53750187 11.0453751 -79.28823474 10.47140115 -95.3125 18.625 C-99.82028586 21.33620454 -102.62655202 24.19215605 -104.3125 29.25 C-105.00755402 35.95230664 -105.18815221 41.95746372 -101.01953125 47.515625 C-95.53093441 53.09213987 -88.63960306 55.65763018 -81.33203125 58.0859375 C-80.55397125 58.34459595 -79.77591125 58.60325439 -78.97427368 58.86975098 C-68.25847624 62.34120152 -57.2826507 64.83167196 -46.32958984 67.42724609 C0.31645717 78.53116371 0.31645717 78.53116371 12.5 98.171875 C19.60326304 111.6270944 21.01560263 126.84944263 16.71484375 141.515625 C11.20137722 156.19025075 -0.46007855 165.74707852 -14.3125 172.25 C-42.6790148 184.60004726 -78.28520081 184.64038182 -107.3125 174.25 C-124.19515755 167.24713861 -138.17448615 155.64286502 -145.8359375 138.875 C-149.57033697 129.70695051 -150.3125 122.22667506 -150.3125 112.25 C-138.4325 112.25 -126.5525 112.25 -114.3125 112.25 C-113.6525 114.56 -112.9925 116.87 -112.3125 119.25 C-107.78806728 130.2660101 -101.70560356 137.4731034 -90.8125 142.375 C-75.38118273 148.47575334 -54.59432654 150.50315878 -39.04296875 143.8515625 C-36.08819275 142.3866796 -33.19664377 140.84844113 -30.3125 139.25 C-29.56226563 138.89550781 -28.81203125 138.54101562 -28.0390625 138.17578125 C-25.70693647 136.92529738 -25.28518682 135.68171704 -24.3125 133.25 C-23.94125 132.5075 -23.57 131.765 -23.1875 131 C-21.47969469 125.63261187 -21.63960024 121.13702864 -23.9375 116.0625 C-29.32832182 106.47881676 -40.45092859 102.54171112 -50.50537109 99.62670898 C-51.47297363 99.35802002 -52.44057617 99.08933105 -53.4375 98.8125 C-54.47084473 98.51738525 -55.50418945 98.22227051 -56.56884766 97.91821289 C-63.90436165 95.84937824 -71.28351372 93.99282784 -78.6875 92.1875 C-92.20348482 88.86380785 -105.11230923 85.20555716 -117.5 78.75 C-118.18312256 78.39446045 -118.86624512 78.0389209 -119.57006836 77.67260742 C-131.48821904 71.15530661 -139.2544766 61.23131142 -143.3125 48.25 C-146.56304021 35.57289318 -144.83871533 20.72003923 -138.578125 9.2734375 C-128.84065869 -6.29448704 -113.97784739 -14.79413136 -96.40625 -18.96875 C-63.09056138 -26.30874162 -26.02429646 -24.52819469 0 0 Z " fill="#000000" transform="translate(170.3125,24.75)"/>
<path d="M0 0 C12.54 0 25.08 0 38 0 C38.33 26.4 38.66 52.8 39 80 C40.98 76.7 42.96 73.4 45 70 C53.287302 60.44853329 64.19336525 53.94244952 76.96972656 52.71459961 C80.13127001 52.59890291 83.27415911 52.5903438 86.4375 52.625 C88.02014648 52.60759766 88.02014648 52.60759766 89.63476562 52.58984375 C104.34949704 52.64417507 116.97768433 57.31409386 127.6796875 67.49609375 C145.23524683 86.44072933 145.95364769 113.34317149 145.16845703 137.68408203 C144.35839165 153.62945599 140.36583707 169.55232117 130 182 C129.40445312 182.71929687 128.80890625 183.43859375 128.1953125 184.1796875 C119.01247574 194.27699764 105.93594298 198.67840496 92.5859375 199.31640625 C76.17482249 199.79084059 62.09147574 197.91804833 49.3125 186.625 C48.549375 185.75875 47.78625 184.8925 47 184 C46.40058594 183.35675781 45.80117187 182.71351563 45.18359375 182.05078125 C39.68381602 176.03991306 39.68381602 176.03991306 39 172 C38.34 172 37.68 172 37 172 C36.81630859 173.71703125 36.81630859 173.71703125 36.62890625 175.46875 C36.07312748 179.91498014 35.07146745 184.17088829 33.9375 188.5 C32.9784375 192.2125 32.9784375 192.2125 32 196 C21.44 196 10.88 196 0 196 C0 131.32 0 66.64 0 0 Z M47.64453125 93.97265625 C38.95440511 104.6856621 36.82554137 119.58895213 38 133 C39.63049706 144.02357793 42.36939887 154.40655266 51 162 C61.64151315 168.95932867 72.62522889 169.9202231 85 168 C92.73436004 166.13565702 98.16979202 162.30610487 103 156 C111.11057004 142.38582886 111.07640909 125.04765314 108 110 C105.58104135 101.049853 100.76799206 94.31750251 93.0625 89.125 C79.57208534 81.49327971 58.86183663 82.80258163 47.64453125 93.97265625 Z " fill="#000000" transform="translate(1458,6)"/>
<path d="M0 0 C12.21 0 24.42 0 37 0 C37.33 26.4 37.66 52.8 38 80 C39.98 76.7 41.96 73.4 44 70 C51.01652905 61.42424227 61.90040789 54.76113252 73 53 C77.01836372 52.75768661 81.03752587 52.76892992 85.0625 52.75 C86.13177734 52.729375 87.20105469 52.70875 88.30273438 52.6875 C103.68504798 52.61314441 115.45340281 56.97773194 126.64453125 67.4921875 C140.99217516 82.76778848 144.57695254 104.20888734 144.39111328 124.42724609 C144.37499733 126.50034288 144.39110168 128.57149168 144.41015625 130.64453125 C144.43896069 148.66748495 141.00067218 166.31177855 130 181 C129.4225 181.86625 128.845 182.7325 128.25 183.625 C118.69149759 193.71453032 105.25844568 198.77900643 91.546875 199.3359375 C73.8166557 199.61171734 59.43631483 197.39660728 46.1875 184.5625 C42.67012811 180.97913615 39.86196652 177.11064301 37 173 C36.85377197 173.62567871 36.70754395 174.25135742 36.55688477 174.89599609 C35.89467208 177.72294291 35.2286345 180.54897487 34.5625 183.375 C34.21735352 184.85226563 34.21735352 184.85226563 33.86523438 186.359375 C33.64287109 187.30039063 33.42050781 188.24140625 33.19140625 189.2109375 C32.98717041 190.08024902 32.78293457 190.94956055 32.57250977 191.84521484 C32 194 32 194 31 196 C20.77 196 10.54 196 0 196 C0 131.32 0 66.64 0 0 Z M45.46875 95.48828125 C37.34277151 105.47233409 36.4810282 120.36282649 37.21875 132.640625 C38.44396038 143.33765412 41.42360107 154.70300959 50.1484375 161.73046875 C51.25058594 162.45169922 51.25058594 162.45169922 52.375 163.1875 C53.46941406 163.92033203 53.46941406 163.92033203 54.5859375 164.66796875 C63.77100187 169.73610297 75.45500289 170.0287237 85.5390625 167.78125 C93.80099712 165.15841361 100.15087809 159.26333112 104.25390625 151.68359375 C110.83496561 136.55444252 110.66971071 118.89159453 105.0859375 103.4765625 C101.58959196 96.05748781 96.45202759 90.124285 88.6640625 87.08984375 C73.43396738 82.28856743 57.18262717 84.10310982 45.46875 95.48828125 Z " fill="#000000" transform="translate(1773,6)"/>
<path d="M0 0 C12.54 0 25.08 0 38 0 C38.33 26.07 38.66 52.14 39 79 C40.98 75.7 42.96 72.4 45 69 C52.81450296 59.98326582 62.83630544 53.97022729 74.84545898 52.69873047 C77.84151925 52.56314855 80.81357923 52.53186702 83.8125 52.5625 C84.86912842 52.57152344 85.92575684 52.58054688 87.0144043 52.58984375 C100.06577887 52.87904863 110.20216881 55.9052893 120 65 C136.96154784 83.87515837 137.17031204 109.05090977 137.09765625 133.01171875 C137.09578769 134.834457 137.09436586 136.65719576 137.09336853 138.47993469 C137.08957784 143.24243595 137.07977759 148.00490597 137.06866455 152.76739502 C137.05837571 157.64114968 137.053855 162.51490945 137.04882812 167.38867188 C137.03815173 176.92579707 137.02058346 186.46289104 137 196 C125.45 196 113.9 196 102 196 C101.95101563 190.84375 101.90203125 185.6875 101.8515625 180.375 C101.81610705 177.07550319 101.7801079 173.77602967 101.7421875 170.4765625 C101.68227127 165.25882611 101.62418618 160.04112169 101.578125 154.82324219 C101.54079211 150.60854771 101.49431467 146.39403777 101.44193649 142.17950439 C101.42364366 140.58509616 101.40844711 138.99064877 101.39665604 137.3961792 C102.00280239 113.43950182 102.00280239 113.43950182 92 93 C92 92.34 92 91.68 92 91 C85.03581022 87.22773053 78.9201967 85.45778656 71.0625 85.5625 C69.87672363 85.57277222 69.87672363 85.57277222 68.66699219 85.58325195 C62.72870892 85.74684271 57.99566487 86.61008456 53 90 C51.39125 91.0828125 51.39125 91.0828125 49.75 92.1875 C38.31152488 103.88594046 38.54451536 120.21093763 38.48828125 135.55078125 C38.47139747 137.30341315 38.45324239 139.05603322 38.43388367 140.80863953 C38.38677856 145.37706806 38.35671558 149.9454486 38.33044434 154.51403809 C38.29514307 160.01935508 38.238245 165.52448786 38.18505096 171.02965546 C38.10700123 179.35307876 38.05604556 187.67626869 38 196 C25.46 196 12.92 196 0 196 C0 131.32 0 66.64 0 0 Z " fill="#000000" transform="translate(1149,6)"/>
<path d="M0 0 C12.21 0 24.42 0 37 0 C37.33 26.4 37.66 52.8 38 80 C39.98 76.7 41.96 73.4 44 70 C49.61586296 61.8168854 59.68973601 55.72825204 69.35864258 53.44238281 C74.10870432 52.6468276 78.88187193 52.7734278 83.6875 52.75 C85.24500977 52.7190625 85.24500977 52.7190625 86.83398438 52.6875 C99.84557428 52.62223811 110.35345283 56.72947096 120.125 65.375 C132.76453758 78.7836778 136.19300396 98.31666933 136.11352539 116.078125 C136.11367142 116.94736099 136.11381744 117.81659698 136.1139679 118.71217346 C136.11327651 121.55814187 136.10552069 124.40404316 136.09765625 127.25 C136.09578932 129.23396774 136.09436671 131.21793593 136.09336853 133.2019043 C136.08956504 138.40339448 136.07975342 143.60485638 136.06866455 148.80633545 C136.05840366 154.12218849 136.05386091 159.43804614 136.04882812 164.75390625 C136.03812907 175.1692852 136.02054998 185.58463582 136 196 C124.45 196 112.9 196 101 196 C100.96261719 190.31523437 100.92523437 184.63046875 100.88671875 178.7734375 C100.85639938 175.14580453 100.82522565 171.51821829 100.79101562 167.890625 C100.73694116 162.14813765 100.68582311 156.4057427 100.65356445 150.66308594 C100.62732168 146.02689455 100.58677563 141.39101822 100.53681374 136.75502396 C100.52028545 134.99708639 100.50868468 133.23909452 100.50238609 131.48109055 C100.67807109 110.21282895 100.67807109 110.21282895 91 92 C82.31796204 85.05771531 72.69236794 85.13090961 62 86 C54.84618374 87.35219005 50.22768045 90.84588081 45.6875 96.45703125 C37.25060289 109.17096647 37.69506438 125.53990899 37.5859375 140.23828125 C37.567179 141.8563887 37.54760231 143.47448685 37.5272522 145.09257507 C37.47641858 149.30588235 37.43653542 153.51922117 37.39910889 157.73266602 C37.35163758 162.81245645 37.2902534 167.8920964 37.23126221 172.97176361 C37.1436463 180.64778001 37.07345669 188.32377635 37 196 C24.79 196 12.58 196 0 196 C0 131.32 0 66.64 0 0 Z " fill="#000000" transform="translate(520,6)"/>
<path d="M0 0 C12.21 0 24.42 0 37 0 C37.33 26.4 37.66 52.8 38 80 C39.65 77.03 41.3 74.06 43 71 C49.77270715 61.64721394 60.55707213 54.91649739 72 53 C75.89348096 52.75981891 79.78730821 52.76901373 83.6875 52.75 C85.24500977 52.7190625 85.24500977 52.7190625 86.83398438 52.6875 C99.88830689 52.62202377 110.45042027 56.73850436 120.1875 65.5 C132.57736454 78.69082548 136.19159602 98.63130838 136.11352539 116.078125 C136.11367142 116.94736099 136.11381744 117.81659698 136.1139679 118.71217346 C136.11327651 121.55814187 136.10552069 124.40404316 136.09765625 127.25 C136.09578932 129.23396774 136.09436671 131.21793593 136.09336853 133.2019043 C136.08956504 138.40339448 136.07975342 143.60485638 136.06866455 148.80633545 C136.05840366 154.12218849 136.05386091 159.43804614 136.04882812 164.75390625 C136.03812907 175.1692852 136.02054998 185.58463582 136 196 C124.45 196 112.9 196 101 196 C100.96261719 190.31523437 100.92523438 184.63046875 100.88671875 178.7734375 C100.85639938 175.14580453 100.82522565 171.51821829 100.79101562 167.890625 C100.73694116 162.14813765 100.68582311 156.4057427 100.65356445 150.66308594 C100.62732168 146.02689455 100.58677563 141.39101822 100.53681374 136.75502396 C100.52028545 134.99708639 100.50868468 133.23909452 100.50238609 131.48109055 C100.67807109 110.21282895 100.67807109 110.21282895 91 92 C82.31796204 85.05771531 72.69236794 85.13090961 62 86 C54.84618374 87.35219005 50.22768045 90.84588081 45.6875 96.45703125 C37.25060289 109.17096647 37.69506438 125.53990899 37.5859375 140.23828125 C37.567179 141.8563887 37.54760231 143.47448685 37.5272522 145.09257507 C37.47641858 149.30588235 37.43653542 153.51922117 37.39910889 157.73266602 C37.35163758 162.81245645 37.2902534 167.8920964 37.23126221 172.97176361 C37.1436463 180.64778001 37.07345669 188.32377635 37 196 C24.79 196 12.58 196 0 196 C0 131.32 0 66.64 0 0 Z " fill="#000000" transform="translate(211,6)"/>
<path d="M0 0 C4.46463545 3.99234344 6.26680357 7.21438571 9.6875 12.6875 C10.0175 4.7675 10.3475 -3.1525 10.6875 -11.3125 C23.2275 -11.3125 35.7675 -11.3125 48.6875 -11.3125 C48.6875 35.8775 48.6875 83.0675 48.6875 131.6875 C38.1275 131.6875 27.5675 131.6875 16.6875 131.6875 C14.7075 124.7575 12.7275 117.8275 10.6875 110.6875 C8.7075 113.3275 6.7275 115.9675 4.6875 118.6875 C-2.54548808 127.27667334 -13.18482875 132.89279292 -24.3125 134.6875 C-40.86795895 136.08057175 -56.69480714 135.16789468 -70.3125 124.6875 C-86.53206429 110.44527963 -89.88963858 89.16163363 -91.3125 68.6875 C-92.48460886 46.03470214 -88.98963265 21.59449959 -75.28515625 2.92578125 C-56.46922592 -17.71217585 -20.57862911 -17.60851769 0 0 Z M-47.0625 30.25 C-56.12691778 41.17696938 -56.18303345 57.17004999 -55.3125 70.6875 C-53.87482834 81.34318406 -51.38861659 90.68307401 -43.34375 98.1484375 C-35.33674353 104.21528471 -25.31729273 105.24076995 -15.54296875 104.46875 C-7.16833732 103.13086725 -0.82865246 99.17897314 4.44140625 92.56640625 C10.25387409 83.80215223 11.05846314 72.63974176 11 62.4375 C10.99508545 61.42550537 10.9901709 60.41351074 10.98510742 59.37084961 C10.78005031 46.24824605 8.67963257 35.40980968 -0.875 25.875 C-14.37086956 14.70072615 -35.51625687 18.4586137 -47.0625 30.25 Z " fill="#000000" transform="translate(453.3125,70.3125)"/>
<path d="M0 0 C4.42878153 3.99984385 7.21654675 9.23610884 10.25 14.3125 C10.58 6.0625 10.91 -2.1875 11.25 -10.6875 C23.46 -10.6875 35.67 -10.6875 48.25 -10.6875 C48.25 36.5025 48.25 83.6925 48.25 132.3125 C38.02 132.3125 27.79 132.3125 17.25 132.3125 C15.37297304 127.30709478 13.7802317 122.91537568 12.5625 117.8125 C12.31113281 116.7709375 12.05976562 115.729375 11.80078125 114.65625 C11.61902344 113.8828125 11.43726563 113.109375 11.25 112.3125 C8.69744348 114.79889955 6.40496118 117.34041319 4.1875 120.125 C-3.60440777 129.00876746 -14.60330479 134.59284909 -26.38134766 135.51953125 C-43.16605643 136.31407368 -57.78794978 135.42681404 -71.16015625 124.30859375 C-84.89566741 111.49031205 -89.91067496 91.99768354 -90.95458984 73.73291016 C-91.05265847 70.00680026 -91.07877451 66.28984061 -91.0625 62.5625 C-91.05831055 61.24717285 -91.05412109 59.9318457 -91.04980469 58.57666016 C-90.81476739 38.30094236 -87.14516268 16.55976151 -72.7890625 1.16015625 C-52.85496096 -16.90273652 -20.82635668 -15.97764836 0 0 Z M-47.2421875 30.94140625 C-55.9040997 41.98662565 -56.66276198 58.81123165 -55.125 72.25 C-53.67754533 82.88612034 -51.09169668 92.09667649 -42.75 99.3125 C-33.59064863 105.69167403 -22.44227533 106.16154009 -11.75 104.3125 C-4.16738332 102.02639766 1.95166116 98.04067483 5.9375 91.0625 C13.25822738 75.26389802 13.39346037 54.03290385 7.5 37.875 C4.34083828 30.77562919 -0.36758564 25.21013404 -7.75 22.3125 C-21.92102294 18.25369638 -36.90182654 19.65363002 -47.2421875 30.94140625 Z " fill="#000000" transform="translate(1391.75,69.6875)"/>
<path d="M0 0 C4.25178796 3.73446014 5.85768106 6.8972897 9.125 12.125 C9.455 4.205 9.785 -3.715 10.125 -11.875 C22.335 -11.875 34.545 -11.875 47.125 -11.875 C47.125 35.315 47.125 82.505 47.125 131.125 C36.895 131.125 26.665 131.125 16.125 131.125 C14.36673272 125.85019815 12.72827481 120.90999566 11.4375 115.5625 C11.18613281 114.52996094 10.93476562 113.49742187 10.67578125 112.43359375 C10.49402344 111.67175781 10.31226563 110.90992188 10.125 110.125 C9.72410156 110.681875 9.32320312 111.23875 8.91015625 111.8125 C0.10555318 123.6318311 -10.03277742 131.58684261 -24.875 134.125 C-28.65029301 134.42074243 -32.40201464 134.44994407 -36.1875 134.4375 C-37.15623047 134.45361328 -38.12496094 134.46972656 -39.12304688 134.48632812 C-51.89967027 134.49485156 -64.22882413 130.84658314 -73.625 121.9375 C-90.46964707 103.90661018 -92.68292495 78.53823947 -92.1640625 54.9765625 C-91.41108561 35.69655759 -87.65031352 12.87332985 -72.875 -0.875 C-52.28245963 -18.25687547 -20.33492907 -17.0518598 0 0 Z M-46.62890625 27.84375 C-57.15024827 40.71195778 -56.64099215 57.43067188 -55.875 73.125 C-54.68286938 83.02574586 -50.84344531 92.3172823 -42.875 98.625 C-34.7315448 104.46114289 -23.75997095 104.90407823 -14.125 103.5625 C-6.56273394 101.88933488 -1.02030306 98.15011358 3.5 91.875 C12.37599711 77.24558648 11.76105692 57.66368174 8.09765625 41.4765625 C5.35192588 32.0153711 0.45378483 26.27877061 -7.9375 21.3125 C-20.37004758 16.60829281 -36.92502871 18.33438226 -46.62890625 27.84375 Z " fill="#000000" transform="translate(1706.875,70.875)"/>
<path d="M0 0 C10.23 0 20.46 0 31 0 C34.45101351 13.80405405 34.45101351 13.80405405 35.6875 20.75 C35.81705078 21.45898438 35.94660156 22.16796875 36.08007812 22.8984375 C36.39019331 24.59832813 36.69564551 26.29906851 37 28 C37.31710937 27.39414063 37.63421875 26.78828125 37.9609375 26.1640625 C45.08560238 13.37115594 54.60530956 5.26947964 68.6015625 0.8671875 C82.76227483 -2.45566275 100.06361812 -1.77596875 112.71484375 5.578125 C125.26068333 13.75779134 131.38547653 25.27679814 134.45703125 39.796875 C135.63065825 46.72042996 136.14383258 53.34414965 136.11352539 60.35351562 C136.11367142 61.25201233 136.11381744 62.15050903 136.1139679 63.07623291 C136.11327621 66.01959727 136.10551894 68.96289682 136.09765625 71.90625 C136.09578942 73.95747849 136.09436677 76.00870743 136.09336853 78.05993652 C136.0895642 83.43897753 136.07975183 88.81799122 136.06866455 94.19702148 C136.05840549 99.6938439 136.0538613 105.19067076 136.04882812 110.6875 C136.03812758 121.45834722 136.02054779 132.22916706 136 143 C124.45 143 112.9 143 101 143 C100.94392578 134.95818359 100.94392578 134.95818359 100.88671875 126.75390625 C100.85638109 123.32223576 100.82519561 119.89061354 100.79101562 116.45898438 C100.73704843 111.03282357 100.68592879 105.60675821 100.65356445 100.18041992 C100.62722212 95.79707795 100.58661175 91.41406362 100.53681374 87.03092766 C100.52035101 85.37315947 100.50871048 83.71533489 100.50238609 82.05749702 C100.46644198 73.48749501 100.0942174 65.16145121 98.63598633 56.70288086 C98.45844456 55.66576509 98.45844456 55.66576509 98.27731609 54.60769749 C96.9607909 47.69322899 94.46390661 41.86322916 88.97265625 37.32421875 C80.29272486 31.58608906 69.12072844 31.78449931 59.09375 33.49609375 C51.78622706 35.71087382 46.9191733 40.24525933 43.09765625 46.7578125 C38.92232837 55.28677408 37.87250309 64.46741219 37.79467773 73.86303711 C37.78477814 74.61508423 37.77487854 75.36713135 37.76467896 76.14196777 C37.73333645 78.60372881 37.7084155 81.06550908 37.68359375 83.52734375 C37.66300062 85.24370294 37.64200356 86.96005733 37.62062073 88.67640686 C37.5656435 93.17587372 37.51612768 97.6753845 37.46777344 102.17492676 C37.40850674 107.58325207 37.34241381 112.9914978 37.27747345 118.39975739 C37.17977066 126.59978932 37.09070509 134.79987423 37 143 C24.79 143 12.58 143 0 143 C0 95.81 0 48.62 0 0 Z " fill="#000000" transform="translate(739,59)"/>
<path d="M0 0 C11.88 0 23.76 0 36 0 C36 47.19 36 94.38 36 143 C24.12 143 12.24 143 0 143 C0 95.81 0 48.62 0 0 Z " fill="#000000" transform="translate(681,59)"/>
<path d="M0 0 C0.74701172 -0.020625 1.49402344 -0.04125 2.26367188 -0.0625 C7.1572338 -0.09687094 10.4374052 0.57212072 14.6875 3.25 C20.6575336 9.7175364 21.58982524 15.62206327 21.6875 24.25 C21.12860838 30.09618374 19.56767057 34.72313433 15.6875 39.25 C8.34196899 43.68792499 0.48999333 44.36654038 -7.890625 42.75390625 C-12.78149123 41.32065572 -15.72101592 39.83493337 -18.3125 35.25 C-22.16924595 26.78192737 -22.68428261 18.06906885 -19.43359375 9.296875 C-15.09478579 1.37514896 -8.409597 0.05715954 0 0 Z " fill="#FE4035" transform="translate(1955.3125,158.75)"/>
<path d="M0 0 C0.69480469 -0.01611328 1.38960937 -0.03222656 2.10546875 -0.04882812 C6.87077434 -0.05331523 10.07851955 0.82097272 14.125 3.3125 C18.81742969 8.00492969 20.18013429 13.24871834 20.4375 19.75 C20.26519532 26.49285633 18.01499591 32.56221826 13.125 37.3125 C6.04054064 40.21579936 -1.98453313 40.49761314 -9.421875 38.6953125 C-13.92241846 36.7834275 -16.31563351 34.1442597 -18.1875 29.6484375 C-20.46515582 21.90958421 -20.6864001 14.57022357 -16.875 7.3125 C-11.81246392 1.21149498 -7.75168964 -0.03555821 0 0 Z " fill="#000000" transform="translate(698.875,1.6875)"/>
</svg>
